<svg xmlns="http://www.w3.org/2000/svg" viewBox="0 0 2432.62 2268.69"><defs><style>.cls-1{fill:#350a33;}</style></defs><g id="Слой_2" data-name="Слой 2"><g id="OBJECT"><path class="cls-1" d="M1025.7,509.31c36.56,21.88,72.06,42.61,106.74,64.62,3.85,2.44,5.48,12.79,4,18.43-13.33,52.19-30.73,103.55-40.6,156.34-8.9,47.58-11.06,96.58-13.9,145.08-2.06,35.16-1.21,70.56-.15,105.81,1.42,47.54-9.67,91.55-29.11,134.9-77.86,173.62-93.31,351.57-36.14,534.9,31.44,100.83,63.43,201.78,87.86,304.41,16.56,69.59,21.47,142.09,29.49,213.53,4.18,37.26-8.36,48.52-46.31,48.53q-395.2.15-790.42.19c-38.06,0-48-9.68-46.92-48,4-150,37.16-294.27,86.21-435.27,35.7-102.6,62.62-206.5,60.7-316.43-1.75-100.49-21.46-196.74-64.2-287.67-24.39-51.9-38.28-104.92-35-162.91,7.58-132.63-9.47-262.1-55.44-387.18-5.31-14.47-2.66-22.56,11.54-30.48,32.69-18.24,64.18-38.65,99.64-60.31,8.65,30.36,17.71,59.23,25.05,88.54,14.93,59.6,28.53,119.54,43.82,179,1.88,7.31,10.36,17.85,16.51,18.38,78.37,6.7,150.53,33.62,220.27,67.39,21,10.16,37.34,10.25,58.2.06,69.75-34.08,142.48-59.88,220.57-66.46,15.05-1.26,15.65-10.92,18.21-20.93Q987,653.94,1017.75,534.13C1019.77,526.3,1022.67,518.69,1025.7,509.31ZM879.81,1453.89a1215.49,1215.49,0,0,0,15.92,189.52c2.25,13.79,10.48,31.6,24,28.2,12.49-3.12,13-20.5,10.86-33.2a1113.89,1113.89,0,0,1,15-438.56c2.48-10.45,5-21.87.39-31.56-21.24-44.31-43.76,45.34-45.8,56.29A1218.82,1218.82,0,0,0,879.81,1453.89Zm134.24,566c2.53-9.57.28-20.79-2.36-30.74-10.07-38-22.47-75.37-38.78-111.1-12.06-26.4-30.74-10.23-30.68,12.73,0,9.77,2.86,19.3,5.66,28.66q14,46.93,28.09,93.86c2.93,9.81,7.73,21.32,17.85,22.86,5.92.9,11.93-2.3,15.64-7A25.2,25.2,0,0,0,1014.05,2019.87Zm-56.36-248.31c3.09-9.31-3.15-19.91-12.05-24-21-9.74-46.9,9-25.62,28.59,5.53,5.09,13,8.43,20.45,7.92S955.32,1778.69,957.69,1771.56Z"/><path class="cls-1" d="M1143.17,1261.43c8.52-22.47,14.56-41.73,23.19-59.75,4.28-8.93,11.92-18.14,20.45-22.82,61.15-33.53,122.91-65.93,184.54-98.6,1.81-1,4.21-.82,7.1-1.33,79.89,159,208.27,246.33,386.63,247.43,179.6,1.11,306.81-87,384.45-250.29,20,10.5,39.11,20.52,58.22,30.48,36.56,19.06,71.92,41.15,110,56.32,46.28,18.42,62.41,54.41,71,101.19-16.37-8.65-30.4-17.71-45.67-23.47-8.1-3-19.79-3.34-27.36.3-21.13,10.16-22.51,25.33-3,39.24,23.77,16.92,48.92,32,74.27,46.54,15.21,8.71,25.9,19,29.33,37,5,26.42,21.91,56.19,14.39,77.8-7.11,20.44-38.61,33-60.39,47.6q-87,58.08-175,114.55c-11.65,7.45-15.49,15.5-15.45,28.9.36,132.83.1,265.67,0,398.51,0,10.3,0,20.61,0,32H1326.14c0-9.78,0-18.5,0-27.23.27-133.58.18-267.17,1.24-400.75.15-18.56-5.27-30.35-20.72-40.62-64.33-42.75-127.77-86.83-192.06-129.62-13.43-8.94-17.75-17.28-15.89-34.49,6.3-58.56,24.93-106.91,85.58-129.18,11.66-4.28,21.75-13.21,32-20.74,10.6-7.78,21-16.65,11.14-31.55-8.77-13.26-20.83-19.86-36.56-12.35C1176.08,1243.58,1161.75,1251.67,1143.17,1261.43Zm640.68,210.37c30.1-4.87,76.66-9.06,121.46-20.29,145.28-36.41,255-122.42,335.44-247.62,8.13-12.66,5.94-19.29-7.93-25.42-32.6-14.4-37.82-13.23-60.37,19.09C2026.94,1406,1728,1468.7,1510.61,1337c-60.51-36.64-112.76-81.52-153.76-139.48-20.19-28.55-32.39-31.88-60.43-22-16.05,5.64-19,12.61-9.12,27.82C1400.14,1377.62,1562.43,1462.4,1783.85,1471.8ZM1681,1802h.19c0-38.22-.07-76.43,0-114.65,0-17.5-4.77-32.85-24.83-33.44s-23.38,15.34-23.44,31.43q-.42,115.77-.41,231.56c0,16.25,5,31.47,24.45,31,18.6-.41,24.27-14.06,24.11-31.28C1680.76,1878.45,1681,1840.23,1681,1802Zm367.09,43.56h-.72c0-27.74,0-55.48,0-83.22,0-15.51-5.76-27.17-22.68-27.43-17.43-.26-22.7,12.24-22.8,27.29-.35,54-.62,108-.43,161.94,0,15.26,5.16,30.79,22.37,31.19,18.09.42,24.61-13.65,24.34-31C2047.8,1898.06,2048.09,1871.81,2048.09,1845.57Zm-243.86-271.48q-.36-14.86-1.88-29.68c-1.1-10.66-3-22-10.41-29.77-37.61-39.33-37.16,61.16-36.31,75.42.86,14.51,2.64,30.88,14.12,39.81a15.82,15.82,0,0,0,7.9,3.51c4.2.43,8.31-1.53,11.61-4.16,12.89-10.25,15-28.77,15.07-45.24C1804.34,1580.68,1804.31,1577.39,1804.23,1574.09Zm243.51-24.33q.06-10.5,0-21c0-8.65-.17-17.49-3.1-25.63s-9.19-15.6-17.61-17.6c-36.34-8.61-27.74,68-26.82,85.72.61,11.84,2.25,24.42,9.88,33.49s23.2,12.32,31.22,3.59c5.14-5.59,5.65-13.9,5.84-21.49Q2047.63,1568.29,2047.74,1549.76Zm-541.61-5.06a235.5,235.5,0,0,0,2,33.6c1.53,10.42,5.44,22.14,15.27,25.92,8.87,3.42,19.27-1.57,24.8-9.29s7.2-17.53,8.07-27a202.86,202.86,0,0,0-2.12-53.91c-2-11.6-6.43-24.56-17.33-29-29.5-12.06-30.51,33.07-30.62,49.89Q1506.13,1539.82,1506.13,1544.7Zm419.49,347q.11-10,.07-20c0-8.45-.19-17.08-3-25.06s-8.66-15.35-16.78-17.71c-35.66-10.4-27.57,58.56-27.49,75.57,0,12.65.58,26.17,8,36.46s24.19,14.63,32.66,5.23c4.92-5.46,5.5-13.44,5.77-20.78Q1925.45,1908.58,1925.62,1891.7Zm-46.75-185c0,1.59,0,3,0,4.21.15,12.34-1.36,25.1,2.85,36.7s16.89,21.46,28.5,17.26c12.91-4.67,15.18-21.65,15.29-35.37l.3-36c.07-7.91.11-16-2.26-23.53s-7.6-14.64-15.09-17.19C1879.86,1643,1878.72,1687.4,1878.87,1706.66Zm312.07-214.18c6.73-1.17,12.69-5.64,18.17-9.93l42-32.87c6.29-4.92,13.14-10.88,13.47-18.87.41-10.1-10.67-17.6-20.77-17.2s-19.06,6.26-27.34,12.06c-14.58,10.2-57.27,34-45.31,57.1a18.94,18.94,0,0,0,16.74,10A19.34,19.34,0,0,0,2190.94,1492.48ZM1287.09,1412c-15.76-4.42-25.27,17.11-21.18,29.45,2.87,8.66,9.68,15.39,16.75,21.15a158.39,158.39,0,0,0,33.71,21c6.83,3.13,15.05,5.72,21.56,2,7-4,8.52-13.9,5.62-21.39s-9.11-13.12-15.1-18.47l-28.08-25c-3.94-3.51-8.06-7.13-13.12-8.6Zm639.4,121.86c-.21-2.34-.49-4.67-.81-7-1.47-10.63-4-21.82-11.49-29.44-32.53-32.84-37.1,35.15-34.63,52.28,1.36,9.47,4.71,19.84,13.19,24.26,10.55,5.5,24.23-1.59,29.73-12.15C1926.9,1553.35,1927.34,1543.52,1926.49,1533.86Zm-122.23,235c-.15-2.94-.48-5.87-.91-8.74-1.6-10.5-5-21.48-13.24-28.17-31.38-25.41-37.83,28.57-35.34,46.55,1.53,11,6.22,23.14,16.64,27.07s22.79-2.75,28.23-12.58C1803.66,1785.67,1804.69,1777.22,1804.26,1768.82ZM1634,1526.26c0,11.67,2.07,23,5.9,29,3.12,4.85,7.14,9.3,12.32,11.82s11.68,2.83,16.56-.24c5.5-3.45,7.87-10.22,9.17-16.59a92.54,92.54,0,0,0,1.19-29.42c-1.2-10-4.47-20.36-12.34-26.57C1643.59,1475.93,1634.05,1501.86,1634,1526.26Zm-127.53,213.61a45.93,45.93,0,0,0-.35,10.42c1.42,13,6.4,28.11,19,31.41,10.79,2.82,22.08-5.35,26.36-15.65s3.17-22,1.3-33c-1.55-9.08-3.93-18.71-10.83-24.8C1521.22,1690,1509,1720,1506.43,1739.87Zm.62,182.58c.19,6.32,1.4,12.19,3.8,16.7,4.07,7.64,11.12,14.66,19.78,14.95,7.14.24,13.83-4.3,17.76-10.27s5.5-13.18,6.31-20.29c1.38-12.15.41-25.47-7.34-34.93C1524,1860.06,1506.21,1895.39,1507.05,1922.45Zm297.37,25a59.84,59.84,0,0,0-.07-7.81c-.81-11-4.64-22.35-13.32-29.06-28.27-21.85-38.18,18.68-36.2,38.41,1.17,11.64,6.26,24.52,17.34,28.26,9.27,3.14,19.94-1.68,25.67-9.61C1802.06,1961.83,1804,1954.7,1804.42,1947.46Z"/><path class="cls-1" d="M1430.24,376.85c0-22.51-.47-41.9.11-61.26,1-32.53,13.59-57.2,45.36-71.15,24.37-10.71,42.63-28.34,44.22-57.43,1.9-34.51-20.1-61.85-56.55-70.85-33.25-8.22-69.65,10-83.26,42-2.91,6.85-4.49,14.27-6.85,21.37-7.07,21.25-29.25,35.76-50.22,32.93-23.8-3.21-40.41-21.54-39.24-46.93,2.49-54.37,33-92,76.7-120.06,57.71-37,137.12-33,190.31,8.18C1607.06,97.18,1630,166.84,1609.13,232c-13.59,42.45-41.66,73.11-81.76,91-27.53,12.25-15.36,35.21-19.19,54-3.41,16.74,7.86,22.63,20.06,30,66,40.16,130.75,82.21,197,121.87,144.64,86.6,299,152.69,456.25,212.21,56.09,21.22,112.44,41.78,168.63,62.76a189.38,189.38,0,0,1,22.63,9.84c27.09,14.4,39.64,45.08,29,69.9-10.86,25.22-37.87,36.31-68.41,26.55-25-8-49.65-17.09-74.06-26.74-107.36-42.43-215.3-83.53-321.67-128.33-140-59-271.56-133.77-397.64-218.4-19.27-12.93-39.82-24-60-35.56-54.12-31.13-112.31-20.61-169.52-15.06-50.7,4.93-101.09,13-151.66,19.28-30.32,3.75-55.29-14-59.86-41.61-4.79-29,9.75-49,41.54-55.84,87.46-18.85,175.85-29.93,265.4-31C1412.54,376.78,1419.22,376.85,1430.24,376.85Z"/><path class="cls-1" d="M1761.19,1267c-124.86-6.28-230-55.45-300.6-166.64-30-47.21-28.55-47.52,18.47-77.48,62-39.53,117.07-86.07,152.2-152.74,22.3-42.34,54.92-73.38,103.49-82.73,63.57-12.23,117.26,9.91,150,62.91,49.09,79.46,112.34,141.7,192.53,187.75,14.32,8.23,15.43,17.15,8.78,31-50,104.4-135,163.47-245.33,189.4-17.41,4.09-35.58,5.09-53.43,7.16C1779.87,1266.54,1772.34,1266.48,1761.19,1267Zm-195.25-176.4c122.28,133.51,328.54,96.91,396.48,1.88-1.11-1.68-1.89-4.11-3.56-5.22-61.65-41.18-123.21-82.49-185.44-122.78-4.81-3.12-15.89-1.32-21.46,2.25-39.09,25-77.53,51.13-116.14,76.94C1613,1058.92,1590.27,1074.26,1565.94,1090.61Z"/><path class="cls-1" d="M419.62,473.29c70.07-42.32,137.76-83.77,206.17-124,12.64-7.43,18.65-15.88,18.73-29.89.21-36.19,19.19-60.24,49.9-76.77,10.54-5.68,21-11.65,31-18.28,29-19.29,41.93-47.23,34.77-74-8-30.1-35-52.94-64.37-54.57C664.54,94,636.55,114.38,623,146c-5,11.7-12.75,23.7-22.48,31.56-15.26,12.32-33.79,11.95-50.46,1.12-16.09-10.46-20.76-26.55-19-45.13C536.66,73.8,588.8,18.14,655.44,4.48c66.32-13.6,124.29,3.21,166.65,57.84S869.4,177.7,839.84,240c-18.12,38.18-51.24,61.81-87.37,81.48-5.14,2.8-10.31,5.54-19,10.2,8.43,5.95,14.45,10.72,20.95,14.72,60.63,37.3,121.07,74.92,182.2,111.38,16.75,10,23.35,19.75,15.25,39.46-9.9,24.11-16.63,49.53-25.59,77-25.62-15.12-50-29.44-74.28-43.85-49-29.06-98.18-57.78-146.74-87.54-12.06-7.39-20.86-6.36-32.52.69-72.42,43.81-145.31,86.85-219.94,131.28Z"/><path class="cls-1" d="M2101.35,2125h78.06c0,30.59,2.12,59.85-.54,88.66-3.27,35.46-28.39,54.58-67.58,54.65q-264.49.47-529,.4c-65.28,0-130.57.1-195.84-.65-38.46-.43-60.49-23.27-61.21-62.19-.41-22.5.16-45,.39-67.53,0-3.67.66-7.33,1.17-12.79H1406c0,17.1-.32,34.73.08,52.35.5,21.43,15.34,36.9,34.18,36.36,18.49-.53,30.1-14.12,30.58-36.6.36-17.08.07-34.17.07-52.74h89.85c0,15.11-2.14,30.17.61,44.27,2.68,13.8,7,30.29,16.55,39.1,18.13,16.7,48,2.48,49.77-22.3,1.41-19.35.28-38.89.28-60.5h89.17c0,17.31-.31,34.35.07,51.38.51,22.81,13.49,37.18,33,37.31,21.94.15,34.23-13,34.61-37.66.26-16.45.05-32.9.05-51.38H1875c0,16.56-.33,32.8.08,49,.59,23.93,16,40.59,36.3,40,20.14-.58,31.57-15.19,31.64-40.52,0-15.62,0-31.25,0-48.54h89.71c0,16.76-.28,33,.06,49.17.55,25.61,12.38,39.9,32.57,40,22.7.16,34.25-13.32,34.38-40.25.06-13.5-.11-27,0-40.5C2099.72,2131.38,2100.51,2129.22,2101.35,2125Z"/><path class="cls-1" d="M131.73,776.56h84.64c4.21,27.37,8.13,52.86,12.67,82.42H177.42c-45,0-90,.42-135,0C10.91,858.72-1.69,845.93.18,814.57c2.74-45.84,17-87.31,55.58-115.63,39.1-28.71,79.53-55.59,124.2-86.62,10.82,36.09,20.84,67.81,29.29,99.95.91,3.48-6.4,10.52-11.29,13.89-22.42,15.48-45.33,30.23-68.07,45.25C130.5,773.12,131.12,774.84,131.73,776.56Z"/><path class="cls-1" d="M1151.77,857.82c2.62-23.67,3.85-44.72,7.93-65.2,1.17-5.9,10.24-14,16.23-14.48,21.55-1.76,43.33-.69,67.48-5-20.66-14.78-40.79-30.4-62.19-44-11.56-7.35-14.64-14.46-10.34-27.47,8.9-26.92,16.38-54.31,25-83.27,6.4,2.57,11.41,3.64,15.35,6.3,36,24.38,72.65,48,107.53,73.87,40.61,30.17,58.06,73.34,60.79,122.68,1.1,20-10.27,35.48-29.63,36C1284.84,858.86,1219.73,857.82,1151.77,857.82Z"/><path class="cls-1" d="M907.93,632.67c-6.49,25.55-11.93,49.43-19.08,72.8-1.26,4.11-9.63,8.61-14.73,8.63-127.42.47-254.84.37-385.21.37l-20.81-81.8Z"/></g></g></svg>