<svg id="Layer_26" data-name="Layer 26" xmlns="http://www.w3.org/2000/svg" viewBox="0 0 411.75 411.75"><defs><style>.cls-1{fill:#cccbc9;}.cls-2{fill:#f57d1f;}.cls-3{fill:#ffd261;}.cls-4{fill:#f59326;}</style></defs><circle class="cls-1" cx="205.87" cy="205.87" r="205.87"/><path class="cls-2" d="M917,1215.81s-.57,70.36-63.44,93.88a112.64,112.64,0,0,1-17.26,4.88l2-16.28s12.4-.14,26.5-8.07c15.57-8.74,33.21-26.93,38.6-64.82,0,0,1.33-8-8.7-8.7H872.21l-.44-12.48h36.34S917,1206.45,917,1215.81Z" transform="translate(-605.59 -1086.87)"/><path class="cls-2" d="M786.6,1314.57a109.28,109.28,0,0,1-21.64-6.64c-58.52-25.08-59.06-92.12-59.06-92.12,0-9.36,8.92-11.59,8.92-11.59h36.34l-.45,12.48H728.2c-10,.67-8.7,8.7-8.7,8.7,4.89,34.42,19.9,52.59,34.28,62.18,15.79,10.53,30.82,10.71,30.82,10.71Z" transform="translate(-605.59 -1086.87)"/><path class="cls-3" d="M867.31,1434.67A6.34,6.34,0,0,1,861,1441H760a6.32,6.32,0,0,1-2.31-12.22,11.39,11.39,0,0,1,2.25-.43c23.28-4.5,34.3-12.42,39.51-18.9a130.59,130.59,0,0,0,21-1.47c4.68,6.71,15.54,15.53,40.61,20.37a12.21,12.21,0,0,1,2.25.43A6.32,6.32,0,0,1,867.31,1434.67Z" transform="translate(-605.59 -1086.87)"/><path class="cls-4" d="M823.5,1331.18s-5.62,1.46-6.62,5.65a5.14,5.14,0,0,0-.13.8,5.7,5.7,0,0,0,.07,1.58v59.71s0,3.94,3.58,9.07a131.67,131.67,0,0,1-21,1.46c4.68-5.83,4.69-10.5,4.69-10.53v-59.71a7.65,7.65,0,0,0,.09-.94,5.6,5.6,0,0,0-.28-1.87c-1.27-3.86-6.5-5.22-6.5-5.22-57.19-28.76-55.51-146.8-55.51-146.8,0-7.69,9-9.7,9-9.7H870s9,2,9,9.7C879,1184.38,880.69,1302.42,823.5,1331.18Z" transform="translate(-605.59 -1086.87)"/><path class="cls-3" d="M882,1176.65a6.86,6.86,0,0,0-6.81-6H745.34a6.89,6.89,0,0,0-6.5,4.61v18.63a6.61,6.61,0,0,0,6.6,6.6h2.79a6.59,6.59,0,0,0,6.48-5.35h.41a6.59,6.59,0,0,0,6.31,4.67h2.79a6.6,6.6,0,0,0,6.31-4.67h.58a6.59,6.59,0,0,0,6.3,4.67h2.8a6.59,6.59,0,0,0,6.3-4.67h.58a6.6,6.6,0,0,0,6.31,4.67h2.79a6.59,6.59,0,0,0,6.31-4.67h.58a6.59,6.59,0,0,0,6.31,4.67h2.78a6.61,6.61,0,0,0,6.32-4.67h.56a6.61,6.61,0,0,0,6.32,4.67h2.79a6.6,6.6,0,0,0,6.31-4.67H835a6.61,6.61,0,0,0,6.31,4.67h2.8a6.61,6.61,0,0,0,6.31-4.67h.4a6.6,6.6,0,0,0,6.48,5.35h2.79a6.6,6.6,0,0,0,6.22-4.39,6.59,6.59,0,0,0,6.22,4.39h2.79a6.59,6.59,0,0,0,6.59-6.59v-4.73a6.56,6.56,0,0,0,.07-.9v-10.75A6.42,6.42,0,0,0,882,1176.65Z" transform="translate(-605.59 -1086.87)"/></svg>