<svg id="Layer_1" data-name="Layer 1" xmlns="http://www.w3.org/2000/svg" xmlns:xlink="http://www.w3.org/1999/xlink" viewBox="0 0 570.16 543.77"><defs><style>.cls-1{fill:#ffbd39;}.cls-2{fill:url(#linear-gradient);}.cls-3{fill:#fff;}.cls-4{opacity:0.6;}.cls-5{fill:#ff5f82;}.cls-6{fill:#541300;}.cls-7{fill:#872a2a;}</style><linearGradient id="linear-gradient" x1="4079.98" y1="1688.18" x2="4392.18" y2="2063.2" gradientUnits="userSpaceOnUse"><stop offset="0.04" stop-color="#fff466"/><stop offset="0.08" stop-color="#fff466"/><stop offset="0.32" stop-color="#ffec5f"/><stop offset="0.69" stop-color="#ffd54d"/><stop offset="0.86" stop-color="#ffc943"/></linearGradient></defs><path class="cls-1" d="M4212.26,1541.38c42.44,0,100.94,148.73,107.42,152.77s163.59,23,176.63,53.6-107.87,141.11-110.86,148.63,27.21,164.71,2.36,185.29-166.89-59.88-175.55-59.92-145,80.92-175.55,59.92,4.57-176.78,2.36-185.29-124.67-108.17-110.86-148.63,171-49.41,176.63-53.6S4169.83,1541.38,4212.26,1541.38Z" transform="translate(-3927.13 -1541.38)"/><path class="cls-2" d="M4212.25,1559.84c39.56,0,91.43,144,97.47,147.72s155.14,16.16,167.29,44.64-103.2,128.87-106,135.88,28,156.18,4.86,175.36-155.55-58.47-163.63-58.51-135.11,78.08-163.62,58.51,9.58-164.78,7.52-172.71-121.52-100.81-108.65-138.53,164.7-40.73,170-44.64S4172.7,1559.84,4212.25,1559.84Z" transform="translate(-3927.13 -1541.38)"/><path class="cls-3" d="M3982.12,1759.18c-2.75-26.82,85.23-42.61,89.12-11.23S3985.87,1795.72,3982.12,1759.18Z" transform="translate(-3927.13 -1541.38)"/><path class="cls-3" d="M4093.77,1739.14c-.67-17.25,25.64-18.3,27-4.15C4122.31,1750.84,4094.38,1755.28,4093.77,1739.14Z" transform="translate(-3927.13 -1541.38)"/><g class="cls-4"><g class="cls-4"><path class="cls-5" d="M4129.55,1855.74c0,17.45-15.33,31.6-34.22,31.6s-34.23-14.15-34.23-31.6,15.33-31.59,34.23-31.59S4129.55,1838.29,4129.55,1855.74Z" transform="translate(-3927.13 -1541.38)"/></g><g class="cls-4"><path class="cls-5" d="M4363.31,1855.74c0,17.45-15.31,31.6-34.21,31.6s-34.22-14.15-34.22-31.6,15.32-31.59,34.22-31.59S4363.31,1838.29,4363.31,1855.74Z" transform="translate(-3927.13 -1541.38)"/></g></g><path class="cls-6" d="M4319.75,1750.9c-3.67-8.54-70.49,24.19-69.2,41.54s62.32,34.3,70.05,25.18-40.39-17.17-40.82-26.9S4324.91,1762.94,4319.75,1750.9Z" transform="translate(-3927.13 -1541.38)"/><path class="cls-6" d="M4104.74,1750.9c3.66-8.54,70.49,24.19,69.2,41.54s-62.32,34.3-70,25.18,40.39-17.17,40.82-26.9S4099.58,1762.94,4104.74,1750.9Z" transform="translate(-3927.13 -1541.38)"/><path class="cls-7" d="M4338,1882.64c-1.65,5.21-31.33,34.29-42.26,35.26-12.42,1.1-33.44-24.3-41.84-24.3s-27.55,28.3-40.33,27.22-38.85-27.22-45.43-26.12-24.3,24.3-36.72,23.2-42.12-25-44.72-30.87,3.83-18.61,8.76-17.15c6.13,1.82,20.11,21,32.53,22.1s33.5-22.89,40.15-23.21,32.66,18.7,45.43,19.77,31.93-20.86,40.33-20.86,32.86,25.39,45.28,24.3c10.93-1,24.66-22.64,30.05-23.56C4333.08,1867.75,4340.3,1875.25,4338,1882.64Z" transform="translate(-3927.13 -1541.38)"/></svg>