<svg xmlns="http://www.w3.org/2000/svg" viewBox="0 0 218.79 184.2"><defs><style>.cls-1{fill:#e3ae9e;}.cls-2{fill:#eeca86;}.cls-3{fill:#f4e0bb;}.cls-4{fill:#f9eedf;}.cls-5{fill:#212a3e;}.cls-6{fill:#d78581;}.cls-7{fill:#e7c1ca;}.cls-8{fill:#d98e8e;}.cls-9{fill:#fffef5;}.cls-10{fill:#e1a5a7;}.cls-11{fill:#d06774;}.cls-12{fill:#b6709c;}</style></defs><g id="Слой_2" data-name="Слой 2"><g id="OBJECTS"><path class="cls-1" d="M56.25,60.93S18.45,99.8,16.12,102.76s-9.17,8.29-9.42,7,4.17-4.4,3.5-5.35-7.53,5.2-9.86,3.86S8.45,99.75,10.79,97.9,39,61.23,42.42,56,56.25,60.93,56.25,60.93Z"/><path class="cls-1" d="M112.8,80.37s9.93,30.32,10.24,33.1-6.61,3.41-8.57,3.12.88-7.13-1.67-9.56S99.43,91.55,100.42,87,106.68,77.83,112.8,80.37Z"/><path class="cls-2" d="M99.29,38.32s13.11,18.77,20.3,47.31c1.77,7.06-5.68,11.81-11.67,13.71S97.09,80.66,93.6,77.14,98,35.85,99.29,38.32Z"/><path class="cls-3" d="M68.2,1.38s7.14-1.79,11,4.26,3.72,23.51,6.1,27.43S73.72,46.43,67.67,46.29s-13-9.65-14.61-10.42S54.4,23.53,54.72,20.3,52.25,1.09,68.2,1.38Z"/><path class="cls-1" d="M69.65,98.42S67.59,128.31,64,136.34c-3.08,7-16.75,36.75-19.84,37.32s-7.81-2.64-7.4-5.76,9.58-27.29,10.34-31,3.41-30,3.77-35.17S69.65,98.42,69.65,98.42Z"/><path class="cls-1" d="M92.72,97s-3.57,78.69-3.84,79.65-3.75,3.05-5.93,3.05-3-6.29-3.55-7.49-7-70.06-7-70.4C70.83,47,92.72,97,92.72,97Z"/><path class="cls-2" d="M79.4,172.16s9.32-.44,9.93,0,.28,1.58.87,2.65,7.37,3.65,8.78,5.77-2.16,2.64-6.34,2.81-11.76,0-13.24-.45S78.44,172.2,79.4,172.16Z"/><path class="cls-4" d="M95,177.71s-1.9,3.16-1.37,3.77-15.09-.54-15,.06-.29,2,.4,2.37,20,.56,21.39-.46S100.09,180.2,95,177.71Z"/><path class="cls-4" d="M90.28,173.75s-3.3,1.1-3.16,1.89,3.4-.68,3.5-1.1S90.61,173.84,90.28,173.75Z"/><path class="cls-4" d="M91.89,174.92s-2.89,1.87-2.53,2.59,3.1-1.48,3.08-1.91S92.24,174.92,91.89,174.92Z"/><path class="cls-4" d="M92.84,176.06s-2,2.69-1.47,3.25,2.39-2.39,2.22-2.78S93.17,176,92.84,176.06Z"/><path class="cls-1" d="M49.58,160.1s-4.83,11.76-5.46,12.53-4.66,1.3-6.65.43-.66-3.85-.68-5.16,4.77-11.77,5.11-11.72S49.58,160.1,49.58,160.1Z"/><path class="cls-2" d="M37.2,164.77s8.72,3.33,9.1,4-.37,1.56-.26,2.78,5.3,6.29,5.75,8.8-3,1.55-6.94,0-10.76-4.73-12-5.71S36.3,164.42,37.2,164.77Z"/><path class="cls-4" d="M49.31,176.11s-3,2.14-2.76,2.9-13.62-6.52-13.72-5.91-1.08,1.74-.58,2.34,18.1,8.5,19.79,8.12S53,180.41,49.31,176.11Z"/><path class="cls-4" d="M46.53,170.58s-3.46-.31-3.64.47,3.38.73,3.64.39S46.81,170.8,46.53,170.58Z"/><path class="cls-4" d="M47.55,172.29s-3.4.57-3.36,1.37,3.43-.12,3.59-.53S47.87,172.44,47.55,172.29Z"/><path class="cls-4" d="M48,173.72s-3,1.64-2.64,2.4,3.14-1.24,3.14-1.67S48.31,173.76,48,173.72Z"/><path class="cls-3" d="M68.68,1.37s5.22.94,8.56,4.49.68,14.34-7.82,15c-12.26,1-12.9-5.4-12.68-10S62.08,1.49,68.68,1.37Z"/><path class="cls-1" d="M72.65,18.63S74.24,30,75.25,29.86,85.4,30,88.33,32.68s-1.92,14.25-1.92,14.25l-22,2.57S54.87,36,57.07,34.29s8.4-3,8.4-3L64.19,21Z"/><path class="cls-1" d="M72.73,6.13S63.9,4.4,61.21,9.77s1.84,16.34,9.31,14.48C76.46,22.77,78.83,8,72.73,6.13Z"/><path class="cls-1" d="M75,16s.67-2.33,1.9-1.51A2.08,2.08,0,0,1,76.82,18C75.29,19,74.79,16.59,75,16Z"/><path class="cls-1" d="M61.85,18.34s-1.94-2.1-2.8-.59a2.45,2.45,0,0,0,2,3.72C63.19,21.67,62.45,18.88,61.85,18.34Z"/><path class="cls-3" d="M65.61,6.22s8.89,3,9.41,4.51S75,15.81,76,15.12s2.18-4.1.31-6.82S64.68,3.24,65.61,6.22Z"/><path class="cls-3" d="M67.23,4.06s-3.8,4.78-5.32,7.22c-.86,1.37.26,7.24-.87,6.82s-3.11-3.45-2-6.54S67.4,1,67.23,4.06Z"/><ellipse class="cls-5" cx="71.99" cy="15.31" rx="0.58" ry="0.75" transform="translate(-1.34 9.01) rotate(-7.09)"/><ellipse class="cls-5" cx="65.13" cy="16.17" rx="0.58" ry="0.75" transform="translate(-1.5 8.17) rotate(-7.09)"/><path class="cls-5" d="M71.22,14.39,70.9,14a1.86,1.86,0,0,1,2.18-.1l-.29.42A1.33,1.33,0,0,0,71.22,14.39Z"/><path class="cls-5" d="M64.19,15.09l-.32-.38A1.83,1.83,0,0,1,66,14.57l-.27.42A1.35,1.35,0,0,0,64.19,15.09Z"/><path class="cls-5" d="M68.67,20.51a2.22,2.22,0,0,1-1.33-.44l.3-.4a2.3,2.3,0,0,0,2.53-.16l.3.4A3.37,3.37,0,0,1,68.67,20.51Z"/><path class="cls-5" d="M68.7,18.93l0-.5c.26,0,.55-.05.73-.08,0-.43-.24-1.59-.44-2.65l.49-.09c.59,3.07.52,3.1.29,3.19A7.32,7.32,0,0,1,68.7,18.93Z"/><circle class="cls-6" cx="72.89" cy="17.86" r="1.52"/><circle class="cls-6" cx="64.88" cy="18.85" r="1.52"/><path class="cls-5" d="M69.17,24.87a6.27,6.27,0,0,1-2.83-.74l.23-.44c3.54,1.8,5.61-.52,5.63-.55l.38.33A4.76,4.76,0,0,1,69.17,24.87Z"/><path class="cls-7" d="M64.72,39.75s9.45-3.44,11.73-1.62,4.75,8.31,1.47,9.07S66.7,51.87,64.55,50.91,59.79,39.88,64.72,39.75Z"/><path class="cls-8" d="M94.9,74.59s11.28,24.65,8.81,28.37c0,0-24.07,6.66-36.79,5.8s-25.29-1.68-28.28-3.33,9.36-24.3,10.2-27S94.9,74.59,94.9,74.59Z"/><path class="cls-5" d="M64.59,31.69s3.69,5.69,8.53,4.1c5.21-1.72,2.12-6,2.12-6,3.37-.12,17.46.12,19.94,6.66,1.21,3.19,7.61,39.35-4.74,41.23-6.43,1-27.62,3.62-39.16,3.94-6.42.18-9.46-34.62-7-42.91C45.85,33.32,61.64,31.27,64.59,31.69Z"/><path class="cls-3" d="M74.41,5.86s2.87,5,1.28,5.67A25.35,25.35,0,0,1,69.17,13c-.89-.08-1.23-4.75-1.31-3.58s0,3.59-1.17,3.75-5.61,1.49-6.26,1,.3-7.17,4.12-9S72.45,4.11,74.41,5.86Z"/><path class="cls-5" d="M63.36,27.89S70.69,24.53,75,25.65s5.37,7.28,2.94,9-10.53,2.24-12,2.38S61.32,30.13,63.36,27.89Z"/><path class="cls-2" d="M54.3,32.93S66.4,22.07,67.67,46.29c.43,8-1.21,33.66-1.76,38.66s-24,5.28-29,.68C33.32,82.27,42,58.29,40.49,53S38.25,35.58,54.3,32.93Z"/><path class="cls-2" d="M80,31.2s-.7,52.66,5.54,55.08,18.38-2.08,18.38-2.08-2-39.52-4.65-45.88S81.35,24.46,80,31.2Z"/><path class="cls-3" d="M54.76,31.2s1.42,2.48,1.06,9.66-.21,14.33,6.09,12.93,4.09-16.72,4.54-22-.26-8.56-2-9.11S54,28.76,54.76,31.2Z"/><path class="cls-3" d="M74.41,24A38.33,38.33,0,0,0,76.3,37.6c2.4,7.37,1.31,12.95,3.86,11.9,6.25-2.57,6.37-13.86,5.33-18.3S76.83,20.75,74.41,24Z"/><path class="cls-2" d="M10.09,88.14c2.17-2.76,26.3-52.82,42-53.48,3.07-.13,2.39,20.25,1.23,26.31s-28.18,47.37-33.82,41.6C15.72,98.75,6.1,93.22,10.09,88.14Z"/><path class="cls-5" d="M49.58,117.18s18,2,17.68,4.43A185.54,185.54,0,0,1,62,141.26c-2.09,6.68-13.28,26.28-15.69,27.48s-9.1-4-9.1-4,7-24.43,8.82-28.86C48.11,130.76,47.79,117,49.58,117.18Z"/><path class="cls-5" d="M74.25,121.57s17.43-1.86,17.34,0l-.08,1.87-2.18,50.31s-11.78,1.11-10.86-.24S73.62,123.5,74.25,121.57Z"/><path class="cls-9" d="M74.23,126.61l0-1c.16,0,15.87-.86,17.37-1l1.52-.14.1,1-1.53.14C90.12,125.75,74.88,126.57,74.23,126.61Z"/><path class="cls-9" d="M74.76,130.44l0-1c.55,0,13.42-.58,17,0l-.16,1C88.08,129.87,74.9,130.44,74.76,130.44Z"/><path class="cls-9" d="M66.44,125.45c-1.08,0-4.72-.71-18.23-4.22l.25-1c6.22,1.62,16.28,4.12,17.84,4.23l.21-.26.78.62-.34.43C66.89,125.36,66.82,125.45,66.44,125.45Z"/><path class="cls-9" d="M64.93,130.28c-.81-.61-11-3.2-17.19-4.68l.23-1c17.27,4.12,17.64,4.84,17.77,5.08l-.89.46.44-.23Z"/><path class="cls-5" d="M102.36,83.53l-.27-.43c3-1.88-.4-10.26-2.68-15.8-.79-1.92-1.47-3.58-1.82-4.74C96.21,57.88,92.91,42.18,92.87,42l.49-.1c0,.16,3.34,15.84,4.71,20.5.34,1.14,1,2.78,1.8,4.69C102.35,73.15,105.75,81.42,102.36,83.53Z"/><path class="cls-5" d="M34.7,81.17l-.44-.24c.07-.14,7.47-13.65,7.47-21.23s3.47-19.29,3.51-19.4l.48.14c0,.11-3.49,11.65-3.49,19.26S35,80.61,34.7,81.17Z"/><path class="cls-9" d="M64.78,102.8A121.47,121.47,0,0,1,41.12,100l.22-1c.19,0,18.63,4.28,31,2.28s29.94-6.13,30.11-6.18l.23,1c-.17,0-17.72,4.17-30.18,6.19A48.49,48.49,0,0,1,64.78,102.8Z"/><path class="cls-9" d="M58.42,93.3a78,78,0,0,1-13-1.09l.19-1c.13,0,12.4,2.37,24,.09,11.73-2.31,31.19-3.65,31.38-3.67l.07,1c-.19,0-19.59,1.35-31.25,3.65A59.29,59.29,0,0,1,58.42,93.3Z"/><path class="cls-9" d="M94.49,105c0-.13-2.28-13.81-3.36-16.66l.93-.35c1.12,2.93,3.32,16.29,3.41,16.85Z"/><path class="cls-9" d="M82,106.55c0-.06-1.11-6.37-2.33-10.85s-2.89-15.51-3-16l1-.15c0,.11,1.72,11.38,2.93,15.86S83,106.32,83,106.38Z"/><path class="cls-9" d="M67.42,108.84l-1-.16a74.28,74.28,0,0,0,.81-14.06,137.34,137.34,0,0,1,0-14.24l1,.05a135.18,135.18,0,0,0,0,14.12A75.21,75.21,0,0,1,67.42,108.84Z"/><path class="cls-9" d="M50.86,107.72l-.92-.4A45.91,45.91,0,0,0,52.4,97.8c1.07-6.32,1.35-8.93,1.35-9l1,.1s-.28,2.66-1.36,9A45.87,45.87,0,0,1,50.86,107.72Z"/><path class="cls-8" d="M126.42,80.37s-12.91,32.31-13.22,35.09,7.63,1.7,9.59,1.42-.72-9.46,1.83-11.9,9.15-12.32,8.17-16.84S132.54,77.83,126.42,80.37Z"/><path class="cls-10" d="M151.57,31.2s-3.19-8.3,13.68-10.44,29.83,8.76,22.23,13.31S145.71,39.77,151.57,31.2Z"/><path class="cls-10" d="M141.48,37s-14.79,15.76-26,58.49c-2.66,10.07,2.17,8.65,12.78,13.36,1.88.84,11.4-17.77,12.32-18.74S142.27,41.7,141.48,37Z"/><path class="cls-1" d="M142.65,108.51s3.28,67.13,3.55,68.09,3.75,3.05,5.93,3.05,2.14-3.26,2.68-4.46,6.8-60.84,6.81-61.18C163.18,59.22,142.65,108.51,142.65,108.51Z"/><path class="cls-5" d="M155.68,172.16s-9.32-.44-9.93,0-.28,1.58-.87,2.65-7.37,3.65-8.78,5.77,2.16,2.64,6.34,2.81,11.76,0,13.24-.45S156.64,172.2,155.68,172.16Z"/><path class="cls-4" d="M140.05,177.71s1.89,3.16,1.37,3.77,15.08-.54,14.94.06.29,2-.4,2.37-20,.56-21.39-.46S135,180.2,140.05,177.71Z"/><path class="cls-4" d="M144.8,173.75s3.3,1.1,3.16,1.89-3.4-.68-3.5-1.1S144.47,173.84,144.8,173.75Z"/><path class="cls-4" d="M143.19,174.92s2.89,1.87,2.53,2.59-3.09-1.48-3.07-1.91S142.84,174.92,143.19,174.92Z"/><path class="cls-4" d="M142.24,176.06s2.06,2.69,1.47,3.25-2.39-2.39-2.22-2.78S141.91,176,142.24,176.06Z"/><path class="cls-1" d="M171.34,108.51s3.28,67.13,3.55,68.09,3.75,3.05,5.93,3.05,2.14-3.26,2.68-4.46,6.8-60.84,6.81-61.18C191.87,59.22,171.34,108.51,171.34,108.51Z"/><path class="cls-5" d="M184.37,172.16s-9.32-.44-9.93,0-.28,1.58-.87,2.65-7.37,3.65-8.78,5.77,2.16,2.64,6.34,2.81,11.76,0,13.24-.45S185.33,172.2,184.37,172.16Z"/><path class="cls-4" d="M168.73,177.71s1.9,3.16,1.37,3.77,15.09-.54,15,.06.29,2-.4,2.37-20,.56-21.39-.46S163.68,180.2,168.73,177.71Z"/><path class="cls-4" d="M173.49,173.75s3.3,1.1,3.16,1.89-3.4-.68-3.5-1.1S173.16,173.84,173.49,173.75Z"/><path class="cls-4" d="M171.88,174.92s2.89,1.87,2.53,2.59-3.1-1.48-3.07-1.91S171.53,174.92,171.88,174.92Z"/><path class="cls-4" d="M170.93,176.06s2.06,2.69,1.47,3.25-2.39-2.39-2.22-2.78S170.6,176,170.93,176.06Z"/><path class="cls-3" d="M140.85,167.17s16.43,2.75,20-1.23,5.45-74.27,5.45-74.27l.78,74.27s17.6,3,22.59,0,.93-87.7-3.56-91.44-35.76-3.13-41.5.33S140.85,167.17,140.85,167.17Z"/><path class="cls-8" d="M159.56,19.2s1,11.42,0,11.53-9.84,2.47-12.1,5.7,5.11,13.45,5.11,13.45l22-2.48s6.22-15.35,3.7-16.48-8.86-1-8.86-1l-1.08-10.28Z"/><path class="cls-5" d="M159.51,1.48a17.45,17.45,0,0,0-7.32,6.32c-2.45,4.22,2.59,14.12,11,12.84C175.37,18.8,174.55,12.46,173.29,8S166,.11,159.51,1.48Z"/><path class="cls-8" d="M156.65,7s8.2-3.69,12,.93,1.91,16.34-5.78,16.22C156.78,24.1,151.12,10.2,156.65,7Z"/><path class="cls-8" d="M156.62,17.13s-1.18-2.12-2.19-1a2.07,2.07,0,0,0,.93,3.47C157.07,20.15,157,17.7,156.62,17.13Z"/><path class="cls-8" d="M170,16.46s1.41-2.48,2.59-1.21a2.45,2.45,0,0,1-1.13,4.09C169.46,20,169.54,17.13,170,16.46Z"/><path class="cls-5" d="M163.43,4.46s-7.81,6-8,7.58,1.21,4.94.09,4.49S152.5,13,153.7,10,163.66,1.35,163.43,4.46Z"/><path class="cls-5" d="M160,4.37a53.77,53.77,0,0,1,7.06,5.15c1.15,1.13,2.64,7.19,3.64,6.53s2.25-4.07.44-6.82S159.16,1.38,160,4.37Z"/><ellipse class="cls-5" cx="159.45" cy="15.82" rx="0.58" ry="0.75" transform="translate(-0.78 16.79) rotate(-6.01)"/><ellipse class="cls-5" cx="166.32" cy="15.09" rx="0.58" ry="0.75" transform="translate(-0.67 17.51) rotate(-6.01)"/><path class="cls-5" d="M158.44,15l-.37-.34a1.83,1.83,0,0,1,2.14-.39l-.22.44A1.34,1.34,0,0,0,158.44,15Z"/><path class="cls-5" d="M165.43,14.09l-.36-.34a1.82,1.82,0,0,1,2.15-.36l-.23.44A1.38,1.38,0,0,0,165.43,14.09Z"/><path class="cls-5" d="M163.24,20.19A3.71,3.71,0,0,1,162,20l.2-.46a2.25,2.25,0,0,0,2.5-.42l.38.32A2.28,2.28,0,0,1,163.24,20.19Z"/><path class="cls-5" d="M162.5,18.7h-.06c-.24,0-.32-.05-.44-3.17l.5,0c0,1.07.11,2.25.17,2.68l.73-.09.07.5A8.93,8.93,0,0,1,162.5,18.7Z"/><circle class="cls-11" cx="159.15" cy="18.5" r="1.52"/><circle class="cls-11" cx="167.17" cy="17.65" r="1.52"/><path class="cls-5" d="M163.25,24.62a4.71,4.71,0,0,1-2.53-.72l.29-.41c.11.08,2.58,1.8,5.62-.75l.32.39A5.7,5.7,0,0,1,163.25,24.62Z"/><circle class="cls-5" cx="173.97" cy="4.13" r="4.13"/><circle class="cls-5" cx="151.57" cy="5.64" r="4.13"/><path class="cls-12" d="M142.65,48s34.45-4.32,38.13-.49,3.34,22.28,2.49,24.81-34.66,2.44-37.07,2.23S142.65,48,142.65,48Z"/><path class="cls-10" d="M174,30.26s2.48,92.34,4.13,99,15.25,4.86,22.73,4.63-2.58-66-3.65-76.8.72-20.25-4.16-22.55S172.47,25.63,174,30.26Z"/><path class="cls-10" d="M134.11,131.68s11.77,3.75,17.46,2.21-1.22-68.41-1.14-81.4c.09-15.43,14.69-22.74,7.82-24.57-4.11-1.1-21,9-22.22,20.86S130.71,130.39,134.11,131.68Z"/><path class="cls-10" d="M195.35,37s23.77,26.65,23.44,34.81-24,30.82-26.34,32.82-10.38-6.9-9.52-13,10.86-18,12.19-19.87-2.67-16.41-2.67-22.3S195.35,37,195.35,37Z"/><path class="cls-8" d="M187.39,94.26s-5.32,3.33-4.46,4.33,4,3.58,4.42,4,5.44-4.15,5.44-4.15Z"/><path class="cls-5" d="M208.64,72.44c-1.76-1.25-4.94-.79-7.74-.39-2.38.34-4.63.67-5.9,0-.48-.26-.55-.58-.52-.8.21-1.66,8.06-3.76,9.63-4.17l.13.49c-3.77,1-9.14,2.78-9.26,3.75,0,.11.13.23.26.3,1.12.62,3.29.31,5.59,0,2.89-.42,6.18-.9,8.1.48Z"/><path class="cls-5" d="M183.52,90.25l-.5,0c.35-3,10.56-16.77,11.79-18.41-1-1.57-8.88-13.86-7.66-20.78,1.26-7.13,2.28-16.19,2.29-16.28l.5.06c0,.09-1,9.16-2.3,16.31s7.6,20.42,7.69,20.56l.1.14-.11.15C195.21,72.1,183.87,87.21,183.52,90.25Z"/><path class="cls-5" d="M137.32,81.63l-.49-.06a148.43,148.43,0,0,0,1.26-17c.06-1.86.11-3.62.21-5.43.48-8.64,6.06-18.75,6.11-18.85l.44.24c-.06.1-5.57,10.12-6,18.64-.1,1.8-.15,3.56-.21,5.42A147.44,147.44,0,0,1,137.32,81.63Z"/><path class="cls-5" d="M187.72,54.9l-.49-.12c1.38-5.62,15.46-8.45,16.06-8.57l.1.49C203.25,46.73,189,49.59,187.72,54.9Z"/><path class="cls-5" d="M138.3,59.16c0-.11-1.86-11.08-3.92-12.67l.3-.4c2.22,1.71,4,12.53,4.12,13Z"/><path class="cls-10" d="M170.3,28.65s.49,18.28,4.28,18.75,12.77-13.66,12.81-14.47S172.23,23.94,170.3,28.65Z"/><path class="cls-5" d="M175.57,40.61c-1.23-.27-1.4-3-1.65-7.23-.06-1-.12-2-.2-3.1-.22-2.9-.91-4-1.45-4.4a1,1,0,0,0-.7-.22l-.11-.48a1.32,1.32,0,0,1,1.08.28c.92.67,1.49,2.28,1.68,4.78.08,1.08.14,2.13.2,3.11.2,3.39.39,6.58,1.25,6.77Z"/><path class="cls-5" d="M152.39,37.11l-.43-.24c.15-.28,3.88-6.86,7.33-9.86l.33.38C156.23,30.33,152.43,37.05,152.39,37.11Z"/><path class="cls-5" d="M133,75a1.77,1.77,0,0,1-1.15-.34l.31-.39c1,.82,4.45-.8,5.49-1.9.25-.27.28-.42.26-.44-.5-.55-4.73-1.49-7.28-1.95l.09-.5c.69.13,6.79,1.26,7.56,2.12.15.16.3.52-.27,1.12A8.91,8.91,0,0,1,133,75Z"/><path class="cls-5" d="M197,98.63c-.28-.19-7.06-4.6-9.74-8.23l.4-.3c2.63,3.56,9.55,8.06,9.62,8.11Z"/><path class="cls-5" d="M131.41,101.52c-.33-.1-8-2.6-11.56-5.4l.32-.39c3.46,2.74,11.31,5.29,11.39,5.32Z"/><path class="cls-5" d="M165.25,92.05a.56.56,0,0,1-.45-.29c-1.66-2.46-4.35-10-3.34-17l.49.07c-1,6.89,1.64,14.22,3.27,16.61l0,0c.63-.85,1-9,.91-16.68h.5c0,5,0,16.81-1.29,17.2Z"/><path class="cls-5" d="M153.11,78.53V78c.19,0,19.34-.58,21.64-1.13l.11.48C172.5,78,153.9,78.51,153.11,78.53Z"/><path class="cls-5" d="M159.86,163h-.5c0-.46,0-46.23,1-55.26s2.15-12.09,2.2-12.22l.47.18s-1.17,3.13-2.17,12.1S159.86,162.5,159.86,163Z"/><path class="cls-5" d="M188.06,163l-.5,0c0-.2,1.07-19.77.15-26.57l.49-.07C189.14,143.16,188.07,162.78,188.06,163Z"/><path class="cls-9" d="M165.83,52.23c-6.77,0-14.9-.22-15.42-.24l0-1c.19,0,19.07.53,23.47,0l.12,1C172.5,52.17,169.35,52.23,165.83,52.23Z"/><path class="cls-9" d="M167,58.55c-7,0-15.86-.48-16.42-.51l.05-1c7.25.39,21.57.91,24,0L175,58C173.86,58.41,170.71,58.55,167,58.55Z"/><path class="cls-9" d="M161.5,64.32H151v-1s7.67,0,23.88,0v1Z"/><path class="cls-9" d="M151.06,71.44l-.09-1c.15,0,14.75-1.37,23.82-1.44v1C165.77,70.08,151.21,71.43,151.06,71.44Z"/><path class="cls-5" d="M157.11,4.89s.33,3.57,1.76,5.52,7.2,2.34,7.92,2-.53-5.53-3-7.54S157.11,4.89,157.11,4.89Z"/></g></g></svg>