<svg xmlns="http://www.w3.org/2000/svg" viewBox="0 0 225.92 207.4"><defs><style>.cls-1{fill:#d98e8e;}.cls-2{fill:#adcab8;}.cls-3{fill:#f4e0bb;}.cls-4{fill:#d49cac;}.cls-5{fill:#8c90a1;}.cls-6{fill:#f9eedf;}.cls-7{fill:#212a3e;}.cls-8{fill:#d06774;}.cls-9{fill:#e7c1ca;}.cls-10{fill:#e3ae9e;}.cls-11{fill:#fffef5;}</style></defs><g id="Слой_2" data-name="Слой 2"><g id="OBJECTS"><path class="cls-1" d="M155.13,190s-.17,6.57-.08,7.11-8.71.91-10,.91-.44-8.35-.44-8.35Z"/><path class="cls-1" d="M174.49,189.83s.19,6.72.09,7.26,8.7.91,10,.91.44-8.35.44-8.35Z"/><path class="cls-2" d="M135.37,40.64s-23.06,18.64-21.52,34.24c1.58,15.93,17.06,37.88,21.22,37.2s8.27-10.68,7.69-14.14-7.41-7.69-5.92-12.79S146.38,37.88,135.37,40.64Z"/><path class="cls-3" d="M162.29,5.66s6.79-.47,10.18,4.84-1.8,14.06-.7,15.69-2.62,2-4.56.9c0,0-4.78,1.9-6.45,1.41C160.76,28.5,153.14,7.89,162.29,5.66Z"/><path class="cls-3" d="M164.05,5.66s-6.78-.47-10.18,4.84,1.8,14.06.7,15.69,2.62,2,4.56.9c0,0,4.78,1.9,6.45,1.41C165.58,28.5,173.2,7.89,164.05,5.66Z"/><path class="cls-4" d="M195.08,78.32s6.63,111.75.81,112.49-22.53.31-24.76-.39-6.5-86.53-6.5-86.53-1.66,85.3-3,86.53-27.63,5-28.92,0S134.44,81.14,140,80.91,195.08,78.32,195.08,78.32Z"/><path class="cls-5" d="M154.93,195.45s-10.29-.43-10.9,0,0,1.48-.59,2.55-7.37,3.66-8.78,5.77,2.16,2.64,6.34,2.82,11.76,0,13.24-.46S155.9,195.49,154.93,195.45Z"/><path class="cls-6" d="M138.61,200.9s1.89,3.16,1.37,3.77,15.09-.53,14.94.06.3,2-.4,2.38-20,.56-21.39-.46S133.55,203.39,138.61,200.9Z"/><path class="cls-6" d="M143.36,196.94s3.3,1.11,3.16,1.89-3.4-.68-3.49-1.1S143,197,143.36,196.94Z"/><path class="cls-6" d="M141.75,198.11s2.89,1.88,2.53,2.6-3.09-1.49-3.07-1.92S141.4,198.12,141.75,198.11Z"/><path class="cls-6" d="M140.8,199.26s2.06,2.68,1.47,3.25-2.39-2.39-2.22-2.79S140.47,199.15,140.8,199.26Z"/><path class="cls-5" d="M174.61,195.41s9.89-.49,10.5-.06.28,1.58.87,2.65,7.38,3.66,8.78,5.77-2.16,2.64-6.34,2.82-11.76,0-13.24-.46S173.64,195.45,174.61,195.41Z"/><path class="cls-6" d="M190.82,200.9s-1.9,3.16-1.37,3.77-15.09-.53-14.95.06-.29,2,.4,2.38,20,.56,21.39-.46S195.87,203.39,190.82,200.9Z"/><path class="cls-6" d="M186.06,196.94s-3.3,1.11-3.16,1.89,3.4-.68,3.5-1.1S186.4,197,186.06,196.94Z"/><path class="cls-6" d="M187.67,198.11s-2.88,1.88-2.53,2.6,3.1-1.49,3.08-1.92S188,198.12,187.67,198.11Z"/><path class="cls-6" d="M188.62,199.26s-2.05,2.68-1.46,3.25,2.38-2.39,2.21-2.79S189,199.15,188.62,199.26Z"/><path class="cls-1" d="M167.72,23.7s.18,11.47,1.2,11.47,14.85,3,17.43,6,3.34,27.29,3.34,27.29L148,67.38s-5.92-24.14-3.53-25.53S159,35.37,159,35.37V25Z"/><circle class="cls-3" cx="161.63" cy="15.18" r="9.53"/><path class="cls-1" d="M156.17,10.32s7.75-3.43,11.23,1.47,1.41,15.51-6.26,16.1C154.58,28.4,150.42,13.06,156.17,10.32Z"/><path class="cls-1" d="M155.39,20.38s-1-2.2-2.11-1.2a2.08,2.08,0,0,0,.68,3.53C155.61,23.42,155.74,21,155.39,20.38Z"/><path class="cls-1" d="M168.37,19.38s1.35-2,2.28-.86a2.09,2.09,0,0,1-1.22,3.39C167.68,22.35,167.94,19.91,168.37,19.38Z"/><path class="cls-3" d="M165.4,10.68s2.06,9.2,3.12,9.3,2.51-5.72,1.13-8S166.31,9.16,165.4,10.68Z"/><path class="cls-3" d="M160,9.77s-5.12,3.86-5.4,5.45.85,5-.24,4.49S151.59,16,153,13,160.47,6.68,160,9.77Z"/><ellipse class="cls-7" cx="158.31" cy="19.28" rx="0.58" ry="0.75" transform="translate(-0.51 4.82) rotate(-1.74)"/><ellipse class="cls-7" cx="165.22" cy="19.07" rx="0.58" ry="0.75" transform="translate(-0.5 5.03) rotate(-1.74)"/><path class="cls-7" d="M157.36,18.42l-.34-.36a1.83,1.83,0,0,1,2.17-.24l-.26.43A1.35,1.35,0,0,0,157.36,18.42Z"/><path class="cls-7" d="M164.4,18l-.33-.37a1.82,1.82,0,0,1,2.17-.2l-.26.42A1.37,1.37,0,0,0,164.4,18Z"/><path class="cls-7" d="M162,23.94a3.48,3.48,0,0,1-1.47-.35l.24-.44a2.25,2.25,0,0,0,2.53-.24l.35.36A2.27,2.27,0,0,1,162,23.94Z"/><path class="cls-7" d="M161.28,22.39h-.2c-.24-.05-.32-.07-.2-3.2l.5,0c0,1.07-.06,2.26,0,2.69l.74,0,0,.49C161.74,22.38,161.46,22.39,161.28,22.39Z"/><circle class="cls-8" cx="157.81" cy="21.93" r="1.52"/><circle class="cls-8" cx="165.88" cy="21.69" r="1.52"/><path class="cls-7" d="M162.21,28.24a7.23,7.23,0,0,1-2.41-.42l.19-.46c.15.06,3.72,1.45,5.83-1.33l.4.31A4.83,4.83,0,0,1,162.21,28.24Z"/><path class="cls-2" d="M156.73,36.09s3.55,4.57,8.75,3.77,2.24-5,9.39-5S193,34.55,197,38.52s1,47,1.64,50.41-59.89,1.34-63.31,1.32S135,47.59,134,43,153.19,34.7,156.73,36.09Z"/><path class="cls-7" d="M164.43,43.87a9.66,9.66,0,0,1-1.48-.11,14.31,14.31,0,0,1-8.1-4,5.66,5.66,0,0,0-2.15-1.45l.1-.49a5.91,5.91,0,0,1,2.38,1.57,14,14,0,0,0,7.85,3.9c4,.6,6.25-1.37,8.64-3.45a16.7,16.7,0,0,1,4.62-3.19l.19.47A16.09,16.09,0,0,0,172,40.2C169.92,42,167.78,43.87,164.43,43.87Z"/><path class="cls-5" d="M173.71,9.54c-.47-.49-1.45-6.09-2.58-7.27-2.59-2.71-12.4-3.15-15.58-.45-2.33,2-2.68,5.19-3.78,7.22s-3.83,3.94-3.52,5.28,29,1.12,29,1.12C179,15,175.26,11.14,173.71,9.54Z"/><path class="cls-2" d="M197,38.52S223.35,65.65,225.84,84c1.44,10.54-18.57,16.54-24.15,17.6s-7.32-2-7.32-6.2c0-5.24,1.38-15.34.71-17.11S191,67.91,188.22,64.06,197,38.52,197,38.52Z"/><path class="cls-7" d="M193,72.8l-.48-.14,0-.08c3.41-11.74,7.5-19.34,11.52-21.39a4.78,4.78,0,0,1,3.95-.31l-.17.47a4.31,4.31,0,0,0-3.55.28c-3.89,2-7.9,9.48-11.27,21.09Z"/><path class="cls-7" d="M185.09,97.41s26.8-1.11,27.8.64-1,39.87,0,39.85-27.5,1.17-27.5,1.17Z"/><path class="cls-7" d="M192.48,35.89l2.84,73s-3.95.5-5.59-.2-2.89-73.65-3.73-73.8S189.14,34.25,192.48,35.89Z"/><path class="cls-1" d="M198.07,89.37s-8.25.9-10.12,2.36-4,4.28-2.84,5.85,13.79.2,15.21-.42S199.6,89.18,198.07,89.37Z"/><path class="cls-7" d="M164.44,106.73a.64.64,0,0,1-.39-.14C162.58,105.44,161.14,96,162,92.9l.48.13c-.82,3,.73,12.24,1.91,13.16.07,0,.09,0,.11,0,.82-.46,1.48-7.24,1.69-13.38l.5,0c-.08,2.16-.5,13-1.95,13.8A.48.48,0,0,1,164.44,106.73Z"/><path class="cls-7" d="M150.35,187.6a130.39,130.39,0,0,1-16.71-1.27l.07-.5c.19,0,19.12,2.84,27.49,0l.16.48A37.2,37.2,0,0,1,150.35,187.6Z"/><path class="cls-7" d="M183,187.32c-5.66,0-11-.33-11.37-.35l0-.5c.18,0,17.6,1.08,23.32-.63l.15.48C192.53,187.1,187.66,187.32,183,187.32Z"/><path class="cls-7" d="M206.63,94c0-.08-4.15-8.15-8-7.39-.78.15-1.1.12-1.21-.13s-.05-.29.22-.49c1.19-.84,8.72-3,14.39,2.23l-.33.37a13,13,0,0,0-9.83-3.19,12,12,0,0,0-3.41.73h.07c4.22-.85,8.39,7.31,8.56,7.65Z"/><path class="cls-7" d="M132.58,74.3c-2.15-12.23-9.15-17.7-9.22-17.75l.3-.4c.07.06,7.22,5.63,9.41,18.06Z"/><path class="cls-7" d="M172.15,13.33c-5.91,0-19.4-.94-20.07-1l0-.49c.2,0,19.18,1.33,22.24.89l.07.49A17.6,17.6,0,0,1,172.15,13.33Z"/><path class="cls-7" d="M152,91.15c-6.47,0-7.46-10.14-7.47-10.24l.5,0c0,.1,1,9.79,7,9.79h.11v.5Z"/><path class="cls-7" d="M138.27,91.34a4.32,4.32,0,0,1-3.54-1.77c-2.56-3.27-3-11-1.34-23.06,1.24-8.92,3.24-17,3.26-17.07l.49.12c-.08.32-7.93,32.13-2,39.7a3.8,3.8,0,0,0,3.15,1.58Z"/><path class="cls-7" d="M179.82,91.15h-.12v-.5h.11c6,0,7-9.69,7-9.79l.5,0C187.28,81,186.29,91.15,179.82,91.15Z"/><path class="cls-7" d="M162.33,91.15h-.12v-.5c6.12.11,7-6.62,7.09-6.91l.5.06C169.79,83.88,168.79,91.15,162.33,91.15Z"/><path class="cls-7" d="M135.47,109.28l-.35-.35c.07-.08,7.22-7.51,6-16.38l.5-.07C142.87,101.6,135.55,109.2,135.47,109.28Z"/><path class="cls-9" d="M45.16,34.73s-3.17-4.68,6.07-9,28-1.64,31.07,0c7.93,4.21,6.93,11.8.93,13.55S44.41,44.49,45.16,34.73Z"/><path class="cls-10" d="M97.22,119.81l-4.65,67.55-11.37,8s-3-72.39-.93-88.87S94.64,113.76,97.22,119.81Z"/><path class="cls-7" d="M81.2,195.35s9.32-.43,9.93,0,.28,1.58.87,2.65,7.37,3.66,8.78,5.77-2.16,2.64-6.34,2.82-11.76,0-13.24-.46S80.23,195.39,81.2,195.35Z"/><path class="cls-6" d="M96.83,200.9s-1.89,3.16-1.37,3.77-15.09-.53-14.94.06-.3,2,.4,2.38,20,.56,21.39-.46S101.89,203.39,96.83,200.9Z"/><path class="cls-6" d="M92.08,196.94s-3.3,1.11-3.16,1.89,3.4-.68,3.5-1.1S92.41,197,92.08,196.94Z"/><path class="cls-6" d="M93.69,198.11s-2.89,1.88-2.53,2.6,3.09-1.49,3.07-1.92S94,198.12,93.69,198.11Z"/><path class="cls-6" d="M94.64,199.26s-2.06,2.68-1.47,3.25,2.39-2.39,2.22-2.79S95,199.15,94.64,199.26Z"/><path class="cls-10" d="M64,114.87,61,188.56l-11.48,6.79s-9.29-80.93-7.22-97.41S61.39,108.82,64,114.87Z"/><path class="cls-7" d="M49.56,195.35s9.32-.43,9.92,0,.29,1.58.88,2.65,7.37,3.66,8.78,5.77-2.17,2.64-6.35,2.82-11.75,0-13.23-.46S48.59,195.39,49.56,195.35Z"/><path class="cls-6" d="M65.19,200.9s-1.89,3.16-1.37,3.77-15.09-.53-15,.06-.29,2,.41,2.38,20,.56,21.39-.46S70.25,203.39,65.19,200.9Z"/><path class="cls-6" d="M60.43,196.94s-3.3,1.11-3.15,1.89,3.39-.68,3.49-1.1S60.77,197,60.43,196.94Z"/><path class="cls-6" d="M62.05,198.11s-2.89,1.88-2.54,2.6,3.1-1.49,3.08-1.92S62.4,198.12,62.05,198.11Z"/><path class="cls-6" d="M63,199.26s-2.05,2.68-1.46,3.25,2.39-2.39,2.22-2.79S63.33,199.15,63,199.26Z"/><path class="cls-2" d="M48.87,187.36s11.27-.21,11.94,0-.82,9.52-.82,9.52-10.74,1.74-11,.06S48.87,187.36,48.87,187.36Z"/><path class="cls-2" d="M80.63,187.36s10.35-.84,11-.64,0,10.15,0,10.15-10.76,1.77-10.92.07C80.51,194.84,80.63,187.36,80.63,187.36Z"/><path class="cls-10" d="M101.9,12s1.26,2.25,1.84,8.14c0,0,3.4.71,4.41,1.87s-.37,5.78-.76,6.45,2.93,8.3,1.79,10.18S101,41.47,100.6,40.1,99.14,30.84,98.08,29c-1.66-2.89.47-6.68.47-6.68s-2.61-6.12-2.19-9.09c.12-.87.64-3,4.32,7.1C100.68,20.32,99.65,8.12,101.9,12Z"/><path class="cls-7" d="M104.34,27.69h-.12a1.78,1.78,0,0,1-1.42-.88c-1.11-1.86.55-6,.62-6.17l.47.19s-1.64,4.08-.66,5.72a1.27,1.27,0,0,0,1,.64,1.16,1.16,0,0,0,.79-.31,7.57,7.57,0,0,0,2.08-4.24l.5,0a8,8,0,0,1-2.26,4.58A1.68,1.68,0,0,1,104.34,27.69Z"/><path class="cls-7" d="M104.49,27.48l-.49-.09c.25-1.35,1.36-5.64,1.41-5.82l.49.12S104.74,26.15,104.49,27.48Z"/><path class="cls-10" d="M98.41,25.82s4-2.23,6.71-1.55c.87.22-2.26,2.53-4.44,3.11"/><path class="cls-7" d="M100.74,27.62l-.13-.48A10.1,10.1,0,0,0,105,24.5c-2.57-.6-6.42,1.52-6.46,1.54l-.24-.44c.17-.09,4.15-2.27,6.9-1.57a.41.41,0,0,1,.33.4C105.53,25.26,102.52,27.15,100.74,27.62Z"/><path class="cls-7" d="M69.74,5.66S63,5.19,59.56,10.5s1.8,14.06.7,15.69,2.62,2,4.56.9c0,0,4.78,1.9,6.45,1.41C71.27,28.5,78.88,7.89,69.74,5.66Z"/><path class="cls-7" d="M39.38,81.4s1.88,106.7,7.7,107,16.66.26,18.89,0,4.43-67.89,4.43-67.89,6,67.63,7.38,68.11,18.16.07,19.44-1.88S98.42,81,92.82,80.9,39.38,81.4,39.38,81.4Z"/><path class="cls-10" d="M64.31,23.7s-.18,11.47-1.2,11.47-14.85,3-17.43,6-3.34,27.29-3.34,27.29L84,67.38s5.92-24.14,3.53-25.53S73,35.37,73,35.37V25Z"/><circle class="cls-7" cx="70.4" cy="15.18" r="9.53"/><path class="cls-10" d="M75.86,10.32s-7.75-3.43-11.23,1.47S62,28,70.89,27.89C77.47,27.81,81.61,13.06,75.86,10.32Z"/><path class="cls-10" d="M76.64,20.38s1-2.2,2.11-1.2a2.08,2.08,0,0,1-.68,3.53C76.42,23.42,76.29,21,76.64,20.38Z"/><path class="cls-10" d="M63.65,19.38s-1.35-2-2.27-.86a2.09,2.09,0,0,0,1.22,3.39C64.35,22.35,64.09,19.91,63.65,19.38Z"/><path class="cls-7" d="M66.63,10.68s-2.06,9.2-3.12,9.3S61,14.26,62.38,12,65.72,9.16,66.63,10.68Z"/><path class="cls-7" d="M72,9.77s5.12,3.86,5.4,5.45-.85,5,.24,4.49S80.44,16,79,13,71.56,6.68,72,9.77Z"/><ellipse class="cls-7" cx="73.71" cy="19.28" rx="0.75" ry="0.58" transform="translate(52.2 92.38) rotate(-88.26)"/><ellipse class="cls-7" cx="66.81" cy="19.07" rx="0.75" ry="0.58" transform="translate(45.72 85.27) rotate(-88.26)"/><path class="cls-7" d="M74.67,18.42a1.37,1.37,0,0,0-1.57-.17l-.26-.43a1.84,1.84,0,0,1,2.17.24Z"/><path class="cls-7" d="M67.63,18a1.37,1.37,0,0,0-1.58-.15l-.26-.42a1.83,1.83,0,0,1,2.17.2Z"/><path class="cls-7" d="M70,23.94a2.24,2.24,0,0,1-1.64-.67l.35-.36a2.28,2.28,0,0,0,2.53.24l.24.44A3.55,3.55,0,0,1,70,23.94Z"/><path class="cls-7" d="M70.75,22.39c-.18,0-.46,0-.83,0l0-.49.74,0c0-.43,0-1.62,0-2.69l.5,0c.11,3.13,0,3.15-.2,3.2Z"/><circle class="cls-1" cx="74.22" cy="21.93" r="1.52"/><circle class="cls-1" cx="66.15" cy="21.69" r="1.52"/><path class="cls-7" d="M69.82,28.24a4.83,4.83,0,0,1-4-1.9l.4-.31C68.32,28.82,72,27.37,72,27.36l.19.46A7.23,7.23,0,0,1,69.82,28.24Z"/><path class="cls-7" d="M76.84,9.34s.79.56.57,2.94-3.65,5.45-6.81,4.27c-.77-.29,1.65-4.37,1.28-3.47s-2.81,3-6.44,2.29-2-8.35,3.64-8.75S76.84,9.34,76.84,9.34Z"/><path class="cls-9" d="M75.73,35.85s-3,6.18-6.82,5.43c-5.37-1.06-6.36-5.94-8.44-5.86-7.37.29-26.37.82-27.53,8.89-.94,6.54,2.39,55.75,1.7,60.17s62.31-.09,65.84-.12-.26-54.8-1.51-60.63C97.49,36.89,79.39,34.06,75.73,35.85Z"/><path class="cls-3" d="M97.13,33.78s12.85-3.19,15.56-1.12,13.83,45.3,9.08,52.39c-8.12,12.12-21.29,0-21.29,0C99.43,81.18,90.71,35,97.13,33.78Z"/><path class="cls-3" d="M81.65,33.34s4.46,94.16,6.46,95.14,18.27,1.6,21.31,0-8.92-83.12-9.94-86.65C97.13,33.66,81.65,33.34,81.65,33.34Z"/><path class="cls-3" d="M52.66,34.73S55,130,51.78,131.17c-14.05,5.2-22.26,2.36-22.26,2.36s.41-86.7,3-91.73C36.05,34.9,52.66,34.73,52.66,34.73Z"/><path class="cls-9" d="M64,30.85s6.49,13.26,1.25,15.23S44.61,38.46,45.16,34.73,62,30.14,64,30.85Z"/><path class="cls-9" d="M73.71,30.85s-9.16,11.22-5.07,13.34S87,43.62,88.11,33.34C88.83,26.57,73.71,30.85,73.71,30.85Z"/><path class="cls-10" d="M42.34,108.23S38.88,118.89,36.8,118,2.81,89.27,2.57,81.61c-.4-12.8,27.88-38.32,31.84-37.39S46.61,55.89,44.94,60.8s-23.5,19-22.17,20.52S39.71,101.65,42.34,108.23Z"/><path class="cls-3" d="M42.34,102.6s-6.71,14.67-9.4,15.42-40.22-35-31.68-47.48c9.15-13.41,35-36.23,40.24-33.67,3.71,1.79,10,25.58,9,28.43S25.26,78.77,27.6,80.89,36.8,94.48,42.34,102.6Z"/><path class="cls-7" d="M65,43.78c-8.3-10.24-4.51-14.27-4.35-14.44l.36.35s-3.6,3.92,4.38,13.78Z"/><path class="cls-7" d="M71.59,42.29,71.21,42c.07-.08,6.83-7.82,5-11.65l.45-.21C78.64,34.22,71.87,42,71.59,42.29Z"/><path class="cls-7" d="M104.42,88.15,101,84l-1.56-2.43c-1.55-2.43-3.34-30.93-3.41-32.14l.49,0c.64,10.23,2.16,30.05,3.35,31.91l1.53,2.41,3.37,4.15Z"/><path class="cls-7" d="M33,74.36l-.45-.21c3.8-7.93-2.93-27.52-3-27.72l.47-.16C30.31,47.08,36.89,66.25,33,74.36Z"/><path class="cls-7" d="M15.15,86.07l-.34-.36c.88-.83,4.87-2.55,7.77-3.8,1.07-.46,2-.87,2.53-1.12-1.52-.58-9.27-1.72-14.16-2.35L11,78c9.7,1.24,14.67,2.18,14.78,2.8a.32.32,0,0,1-.19.36c-.41.22-1.47.68-2.82,1.26C20.07,83.54,16,85.31,15.15,86.07Z"/><path class="cls-7" d="M98.46,37.44l-.1-.49c.31-.06,7.6-1.44,11.12-1l3.53.39-.06.5-3.52-.4C106,36,98.53,37.42,98.46,37.44Z"/><path class="cls-7" d="M32.05,114.32,31.7,114c.49-.46,5.27-8.57,6-11.41l.48.13C37.46,105.51,32.69,113.71,32.05,114.32Z"/><path class="cls-7" d="M36.44,122.45l-.42-.27c.08-.13,8.14-12.65,6.08-19.5l.48-.15C44.7,109.6,36.78,121.93,36.44,122.45Z"/><path class="cls-7" d="M101.71,119.77c-5.14-3.25-11.44-17-11.71-17.54l.46-.2c.06.14,6.5,14.15,11.52,17.32Z"/><path class="cls-11" d="M66.63,21.81a3.49,3.49,0,1,1,3.49-3.49A3.49,3.49,0,0,1,66.63,21.81Zm0-6.48a3,3,0,1,0,3,3A3,3,0,0,0,66.63,15.33Z"/><path class="cls-11" d="M74.84,22.56a3.49,3.49,0,1,1,3.49-3.49A3.49,3.49,0,0,1,74.84,22.56Zm0-6.48a3,3,0,1,0,3,3A3,3,0,0,0,74.84,16.08Z"/><path class="cls-11" d="M71.54,19.32a13.79,13.79,0,0,0-1.74-.15l0-.5a13.77,13.77,0,0,1,1.84.16Z"/></g></g></svg>